# xmcd CD database file
#
# Track frame offsets:
#	150
#	23215
#	49355
#
# Disc length: 962 seconds
#
# Revision: 0
# Processed by: cddbd v1.5PL3 Copyright (c) Steve Scherf et al.
# Submitted via: CDex 1.50beta9
#
DISCID=2103c003
DTITLE=米倉利紀 - Ｅｍｅｒｇｅｎｃｙ
DYEAR=1994
DGENRE=J-POP
TTITLE0=Ｅｍｅｒｇｅｎｃｙ
TTITLE1=あの夏の日…
TTITLE2=Ｅｍｅｒｇｅｎｃｙ　カラオケ
EXTD=YEAR: 1994
EXTT0=
EXTT1=
EXTT2=
PLAYORDER=
